<svg width="41" height="41" viewBox="0 0 41 41" fill="none" xmlns="http://www.w3.org/2000/svg">
<path d="M20.5354 40.9884C9.28214 41.3814 0.277787 32.265 0.00651864 21.112C-0.278751 9.27495 8.83411 -0.0940127 20.4286 0.000711973C32.2752 0.0971908 40.8735 8.6838 40.9995 20.4665C41.1343 32.379 31.5856 41.3831 20.5354 40.9884ZM12.7124 22.2189H17.2312V35.8119H23.0066V22.1908C24.3262 22.1908 25.5162 22.2224 26.7028 22.1698C27.0143 22.1558 27.5429 21.9242 27.5779 21.7172C27.8964 20.0666 28.1204 18.3966 28.3987 16.5828H22.9733C22.9733 15.1795 22.9488 13.9147 22.9733 12.6482C22.9978 11.3817 23.4721 10.9502 24.7724 10.9397C25.9538 10.9397 27.1351 10.9397 28.3024 10.9397V5.23161C26.5278 5.23161 24.8022 5.03164 23.1466 5.27372C19.6463 5.78593 17.2872 8.80835 17.1962 12.6307C17.1629 13.9287 17.1962 15.2268 17.1962 16.6302H12.7124V22.2189Z" fill="white"/>
</svg>
