<svg width="41" height="41" viewBox="0 0 41 41" fill="none" xmlns="http://www.w3.org/2000/svg">
<path d="M20.5098 0.000100401C31.8688 0.0351836 41.0317 9.21471 41.0002 20.5238C40.997 23.2275 40.459 25.9038 39.4171 28.3987C38.3753 30.8935 36.8501 33.1575 34.9295 35.0603C33.0089 36.9631 30.7309 38.4671 28.2266 39.4856C25.7223 40.5041 23.0413 41.0171 20.3379 40.9948C9.11225 40.9492 -0.0454347 31.6978 0.000169593 20.4291C0.0457739 9.12876 9.2438 -0.0349828 20.5098 0.000100401ZM32.9861 20.6992H33.0282C33.0282 18.9766 33.0282 17.2558 33.0282 15.5332C33.0353 15.1094 33.0124 14.6856 32.9598 14.2649C32.7135 12.5104 31.838 10.9052 30.4963 9.74832C29.1545 8.5914 27.4381 7.96162 25.6666 7.97627C22.2872 7.97627 18.9078 7.97627 15.5284 7.97627C15.079 7.96639 14.6295 7.99456 14.1849 8.06047C10.4646 8.69899 7.97565 11.6425 7.97565 15.4139C7.97565 18.845 7.95461 22.2762 7.98793 25.7073C7.99315 26.4382 8.10181 27.1646 8.31067 27.8649C9.27362 31.0031 12.052 33.0239 15.3425 33.0345C18.7488 33.0345 22.1539 33.0345 25.5579 33.0345C26.0584 33.0323 26.5581 32.9912 27.0523 32.9117C30.1744 32.4135 32.8177 29.5788 32.9756 26.4423C33.058 24.525 32.9861 22.606 32.9861 20.6922V20.6992Z" fill="white"/>
<path d="M20.5241 30.7218C18.7894 30.7218 17.0546 30.7218 15.3199 30.7218C12.8117 30.7112 10.8402 29.0834 10.3578 26.6241C10.3038 26.3349 10.2774 26.0412 10.2789 25.747C10.2789 22.2772 10.2666 18.8075 10.2789 15.3378C10.2789 12.8135 11.9347 10.8313 14.4096 10.3577C14.7515 10.3009 15.0979 10.2756 15.4445 10.2823C18.8624 10.2823 22.2804 10.2823 25.6984 10.2823C28.4364 10.2823 30.6447 12.3311 30.6956 15.0554C30.7622 18.7391 30.7815 22.4334 30.678 26.1171C30.6026 28.7483 28.3978 30.7025 25.7668 30.7235C24.0181 30.7323 22.2711 30.72 20.5241 30.7218ZM14.0483 20.4915C14.0237 23.9998 16.9161 26.9152 20.4504 26.9538C22.1586 26.9567 23.7992 26.286 25.0161 25.087C26.233 23.8881 26.9281 22.2576 26.9508 20.5494C26.9753 17.0305 24.0847 14.0765 20.5855 14.0502C19.7328 14.0421 18.887 14.2025 18.0965 14.5222C17.306 14.8418 16.5864 15.3144 15.9791 15.9129C15.3717 16.5114 14.8884 17.2239 14.5571 18.0096C14.2258 18.7954 14.0528 19.6388 14.0483 20.4915ZM27.1683 15.336C27.465 15.339 27.7561 15.2548 28.0055 15.0938C28.2548 14.9328 28.4514 14.7021 28.5708 14.4304C28.6902 14.1586 28.7273 13.8578 28.6773 13.5653C28.6273 13.2727 28.4925 13.0012 28.2896 12.7846C28.0868 12.5679 27.8248 12.4156 27.5361 12.3465C27.2475 12.2774 26.9449 12.2947 26.666 12.396C26.387 12.4973 26.144 12.6784 25.967 12.9166C25.79 13.1549 25.6868 13.4399 25.6703 13.7362C25.6561 13.9414 25.6843 14.1473 25.7532 14.3411C25.8221 14.5349 25.9302 14.7124 26.0708 14.8625C26.2114 15.0126 26.3814 15.1321 26.5702 15.2136C26.759 15.2951 26.9626 15.3368 27.1683 15.336Z" fill="white"/>
<path d="M24.6404 20.4564C24.6487 21.277 24.4134 22.0816 23.9643 22.7683C23.5151 23.455 22.8723 23.9931 22.1173 24.3143C21.3622 24.6355 20.5289 24.7255 19.7227 24.5728C18.9165 24.4201 18.1737 24.0317 17.5883 23.4566C17.003 22.8815 16.6014 22.1457 16.4344 21.3423C16.2674 20.5389 16.3426 19.704 16.6503 18.9433C16.958 18.1825 17.4845 17.5302 18.1631 17.0689C18.8417 16.6076 19.6418 16.358 20.4624 16.3517C21.5603 16.3433 22.6167 16.7707 23.3999 17.5402C24.1832 18.3097 24.6293 19.3584 24.6404 20.4564Z" fill="white"/>
</svg>
