<svg width="92" height="42" viewBox="0 0 92 42" fill="none" xmlns="http://www.w3.org/2000/svg">
<path d="M71.5098 1.0001C82.8688 1.03518 92.0317 10.2147 92.0002 21.5238C91.997 24.2275 91.459 26.9038 90.4171 29.3987C89.3753 31.8935 87.8501 34.1575 85.9295 36.0603C84.0089 37.9631 81.7309 39.4671 79.2266 40.4856C76.7223 41.5041 74.0413 42.0171 71.3379 41.9948C60.1123 41.9492 50.9546 32.6978 51.0002 21.4291C51.0458 10.1288 60.2438 0.965017 71.5098 1.0001ZM83.9861 21.6992H84.0282C84.0282 19.9766 84.0282 18.2558 84.0282 16.5332C84.0353 16.1094 84.0124 15.6856 83.9598 15.2649C83.7135 13.5104 82.838 11.9052 81.4963 10.7483C80.1545 9.5914 78.4381 8.96162 76.6666 8.97627C73.2872 8.97627 69.9078 8.97627 66.5284 8.97627C66.079 8.96639 65.6295 8.99456 65.1849 9.06047C61.4646 9.69899 58.9757 12.6425 58.9757 16.4139C58.9757 19.845 58.9546 23.2762 58.9879 26.7073C58.9932 27.4382 59.1018 28.1646 59.3107 28.8649C60.2736 32.0031 63.052 34.0239 66.3425 34.0345C69.7488 34.0345 73.1539 34.0345 76.5579 34.0345C77.0584 34.0323 77.5581 33.9912 78.0523 33.9117C81.1744 33.4135 83.8177 30.5788 83.9756 27.4423C84.058 25.525 83.9861 23.606 83.9861 21.6922V21.6992Z" fill="white"/>
<path d="M71.5241 31.7218C69.7894 31.7218 68.0546 31.7218 66.3199 31.7218C63.8117 31.7112 61.8402 30.0834 61.3578 27.6241C61.3038 27.3349 61.2774 27.0412 61.2789 26.747C61.2789 23.2772 61.2666 19.8075 61.2789 16.3378C61.2789 13.8135 62.9347 11.8313 65.4096 11.3577C65.7515 11.3009 66.0979 11.2756 66.4445 11.2823C69.8624 11.2823 73.2804 11.2823 76.6984 11.2823C79.4364 11.2823 81.6447 13.3311 81.6956 16.0554C81.7622 19.7391 81.7815 23.4334 81.678 27.1171C81.6026 29.7483 79.3978 31.7025 76.7668 31.7235C75.0181 31.7323 73.2711 31.72 71.5241 31.7218ZM65.0483 21.4915C65.0237 24.9998 67.9161 27.9152 71.4504 27.9538C73.1586 27.9567 74.7992 27.286 76.0161 26.087C77.233 24.8881 77.9281 23.2576 77.9508 21.5494C77.9753 18.0305 75.0847 15.0765 71.5855 15.0502C70.7328 15.0421 69.887 15.2025 69.0965 15.5222C68.306 15.8418 67.5864 16.3144 66.9791 16.9129C66.3717 17.5114 65.8884 18.2239 65.5571 19.0096C65.2258 19.7954 65.0528 20.6388 65.0483 21.4915ZM78.1683 16.336C78.465 16.339 78.7561 16.2548 79.0055 16.0938C79.2548 15.9328 79.4514 15.7021 79.5708 15.4304C79.6902 15.1586 79.7273 14.8578 79.6773 14.5653C79.6273 14.2727 79.4925 14.0012 79.2896 13.7846C79.0868 13.5679 78.8248 13.4156 78.5361 13.3465C78.2475 13.2774 77.9449 13.2947 77.666 13.396C77.387 13.4973 77.144 13.6784 76.967 13.9166C76.79 14.1549 76.6868 14.4399 76.6703 14.7362C76.6561 14.9414 76.6843 15.1473 76.7532 15.3411C76.8221 15.5349 76.9302 15.7124 77.0708 15.8625C77.2114 16.0126 77.3814 16.1321 77.5702 16.2136C77.759 16.2951 77.9626 16.3368 78.1683 16.336Z" fill="white"/>
<path d="M75.6404 21.4564C75.6487 22.277 75.4134 23.0816 74.9643 23.7683C74.5151 24.455 73.8723 24.9931 73.1173 25.3143C72.3622 25.6355 71.5289 25.7255 70.7227 25.5728C69.9165 25.4201 69.1737 25.0317 68.5883 24.4566C68.003 23.8815 67.6014 23.1457 67.4344 22.3423C67.2674 21.5389 67.3426 20.704 67.6503 19.9433C67.958 19.1825 68.4845 18.5302 69.1631 18.0689C69.8417 17.6076 70.6418 17.358 71.4624 17.3517C72.5603 17.3433 73.6167 17.7707 74.3999 18.5402C75.1832 19.3097 75.6293 20.3584 75.6404 21.4564Z" fill="white"/>
<path d="M20.5354 40.9884C9.28214 41.3814 0.277787 32.265 0.00651864 21.112C-0.278751 9.27495 8.83411 -0.0940127 20.4286 0.000711973C32.2752 0.0971908 40.8735 8.6838 40.9995 20.4665C41.1343 32.379 31.5856 41.3831 20.5354 40.9884ZM12.7124 22.2189H17.2312V35.8119H23.0066V22.1908C24.3262 22.1908 25.5162 22.2224 26.7028 22.1698C27.0143 22.1558 27.5429 21.9242 27.5779 21.7172C27.8964 20.0666 28.1204 18.3966 28.3987 16.5828H22.9733C22.9733 15.1795 22.9488 13.9147 22.9733 12.6482C22.9978 11.3817 23.4721 10.9502 24.7724 10.9397C25.9538 10.9397 27.1351 10.9397 28.3024 10.9397V5.23161C26.5278 5.23161 24.8022 5.03164 23.1466 5.27372C19.6463 5.78593 17.2872 8.80835 17.1962 12.6307C17.1629 13.9287 17.1962 15.2268 17.1962 16.6302H12.7124V22.2189Z" fill="white"/>
</svg>
